<svg width="27" height="31" viewBox="0 0 27 31" fill="none" xmlns="http://www.w3.org/2000/svg">
<path d="M26.2099 22.3764C25.6692 23.6698 25.0058 24.9083 24.2286 26.0749C22.9414 28.033 21.1276 30.474 18.881 30.4943C16.8838 30.5125 16.371 29.1941 13.6595 29.2093C10.948 29.2245 10.3838 30.5147 8.38584 30.4994C6.13771 30.4784 4.41971 28.2752 3.1332 26.3164C-0.465259 20.8383 -0.841643 14.4093 1.37748 10.9914C2.04857 9.87456 2.98348 8.93944 4.10018 8.26804C5.21689 7.59665 6.48129 7.20951 7.78247 7.14062C10.1648 7.14062 11.6623 8.44598 13.6312 8.44598C15.5414 8.44598 16.7061 7.14062 19.4597 7.14062C20.6039 7.19276 21.7224 7.49712 22.7353 8.03195C23.7481 8.56677 24.6303 9.31883 25.3186 10.2343C20.1704 13.0554 21.0044 20.4104 26.2099 22.3764Z" fill="black"/>
<path d="M17.3718 4.95169C17.9355 4.26617 18.3571 3.47529 18.612 2.62514C18.8669 1.77499 18.9499 0.882583 18.8563 0C17.0406 0.215705 15.3742 1.11187 14.1932 2.50776C13.614 3.16059 13.179 3.92828 12.9166 4.76065C12.6542 5.59301 12.5703 6.47134 12.6703 7.33834C13.5826 7.31774 14.4787 7.0926 15.2924 6.67953C16.1061 6.26646 16.8167 5.67599 17.3718 4.95169Z" fill="black"/>
</svg>
