<svg width="29" height="29" viewBox="0 0 29 29" fill="none" xmlns="http://www.w3.org/2000/svg">
<g clip-path="url(#clip0_172_20075)">
<path d="M24.752 15.1888H21.9132C21.5269 15.1888 21.1528 15.2416 20.7969 15.3387C20.0946 13.9583 18.6609 13.0098 17.0089 13.0098H11.9911C10.3391 13.0098 8.90538 13.9583 8.20315 15.3387C7.84716 15.2416 7.47311 15.1888 7.08676 15.1888H4.24805C1.90567 15.1888 0 17.0945 0 19.4369V23.9748C0 25.3802 1.1434 26.5237 2.54883 26.5237H26.4512C27.8566 26.5237 29 25.3802 29 23.9748V19.4369C29 17.0945 27.0943 15.1888 24.752 15.1888ZM7.74306 17.2579V24.8245H2.54883C2.08035 24.8245 1.69922 24.4434 1.69922 23.9749V19.4369C1.69922 18.0315 2.84262 16.8881 4.24805 16.8881H7.08676C7.3174 16.8881 7.54074 16.9194 7.75337 16.9772C7.74725 17.0701 7.74306 17.1636 7.74306 17.2579ZM19.5577 24.8245H9.44228V17.2579C9.44228 15.8524 10.5857 14.709 11.9911 14.709H17.0089C18.4143 14.709 19.5577 15.8524 19.5577 17.2579V24.8245ZM27.3008 23.9749C27.3008 24.4434 26.9196 24.8245 26.4512 24.8245H21.2569V17.2579C21.2569 17.1634 21.2528 17.07 21.2466 16.9771C21.4593 16.9194 21.6826 16.8881 21.9132 16.8881H24.752C26.1574 16.8881 27.3008 18.0315 27.3008 19.4369V23.9749Z" fill="black"/>
<path d="M5.66745 7.16602C3.58596 7.16602 1.89258 8.8594 1.89258 10.9409C1.89252 13.0224 3.58596 14.7158 5.66745 14.7158C7.74888 14.7158 9.44232 13.0224 9.44232 10.9409C9.44232 8.8594 7.74894 7.16602 5.66745 7.16602ZM5.66739 13.0165C4.52286 13.0165 3.59174 12.0854 3.59174 10.9409C3.59174 9.79635 4.52286 8.86523 5.66739 8.86523C6.81193 8.86523 7.74304 9.79635 7.74304 10.9409C7.74304 12.0854 6.81193 13.0165 5.66739 13.0165Z" fill="black"/>
<path d="M14.5002 2.47656C11.7194 2.47656 9.45703 4.7389 9.45703 7.51973C9.45703 10.3006 11.7194 12.5629 14.5002 12.5629C17.281 12.5629 19.5434 10.3006 19.5434 7.51973C19.5434 4.73896 17.281 2.47656 14.5002 2.47656ZM14.5002 10.8637C12.6563 10.8637 11.1563 9.36361 11.1563 7.51973C11.1563 5.67591 12.6563 4.17578 14.5002 4.17578C16.3441 4.17578 17.8441 5.67585 17.8441 7.51973C17.8441 9.36361 16.3441 10.8637 14.5002 10.8637Z" fill="black"/>
<path d="M23.3325 7.16602C21.2511 7.16602 19.5576 8.8594 19.5576 10.9409C19.5577 13.0224 21.2511 14.7158 23.3325 14.7158C25.414 14.7158 27.1074 13.0224 27.1074 10.9409C27.1074 8.8594 25.414 7.16602 23.3325 7.16602ZM23.3325 13.0165C22.188 13.0165 21.2568 12.0854 21.2568 10.9409C21.2569 9.79635 22.188 8.86523 23.3325 8.86523C24.477 8.86523 25.4081 9.79635 25.4081 10.9409C25.4081 12.0854 24.477 13.0165 23.3325 13.0165Z" fill="black"/>
</g>
<defs>
<clipPath id="clip0_172_20075">
<rect width="29" height="29" fill="white"/>
</clipPath>
</defs>
</svg>
