<svg width="25" height="25" viewBox="0 0 25 25" fill="none" xmlns="http://www.w3.org/2000/svg">
<path fill-rule="evenodd" clip-rule="evenodd" d="M18.3611 2.87215C17.2724 2.5158 15.7895 2.50005 12.5 2.50005C10.7356 2.50005 9.47493 2.50073 8.48143 2.56851C7.49914 2.63553 6.86967 2.76395 6.35822 2.9758C4.8268 3.61014 3.61009 4.82685 2.97575 6.35828C2.7639 6.86973 2.63549 7.49919 2.56846 8.48146C2.50067 9.47498 2.5 10.7357 2.5 12.5001C2.5 14.2644 2.50067 15.5252 2.56846 16.5187C2.63549 17.5009 2.7639 18.1304 2.97575 18.6418C3.61009 20.1733 4.8268 21.3899 6.35822 22.0243C6.86967 22.2362 7.49914 22.3646 8.48143 22.4316C9.47493 22.4994 10.7356 22.5001 12.5 22.5001C14.2644 22.5001 15.5251 22.4994 16.5186 22.4316C17.5009 22.3646 18.1304 22.2362 18.6418 22.0243C20.1733 21.3899 21.3899 20.1733 22.0243 18.6418C22.2361 18.1304 22.3645 17.5009 22.4315 16.5187C22.4994 15.5252 22.5 14.2644 22.5 12.5001C22.5 11.5428 22.5 10.7298 22.4885 10.0202C22.4774 9.32991 23.028 8.76133 23.7183 8.75021C24.4085 8.73909 24.9771 9.28965 24.9883 9.97991C25 10.7118 25 11.5442 25 12.4921V12.5461C25 14.2544 25 15.6002 24.9257 16.6888C24.85 17.7984 24.693 18.7317 24.334 19.5986C23.4459 21.7426 21.7425 23.4459 19.5985 24.3341C18.7316 24.6931 17.7984 24.8501 16.6887 24.9258C15.6001 25.0001 14.2544 25.0001 12.5461 25.0001H12.4539C10.7456 25.0001 9.39983 25.0001 8.31125 24.9258C7.20168 24.8501 6.26836 24.6931 5.40153 24.3341C3.25752 23.4459 1.55413 21.7426 0.66605 19.5986C0.307 18.7317 0.149963 17.7984 0.0742626 16.6888C-1.23819e-05 15.6002 0 14.2544 0 12.5461V12.4541C0 10.7457 -1.23819e-05 9.39986 0.0742626 8.31129C0.149963 7.20173 0.307 6.2684 0.66605 5.40156C1.55413 3.25758 3.25752 1.55418 5.40153 0.666102C6.26836 0.307039 7.20167 0.150014 8.31124 0.0743143C9.39982 3.92972e-05 10.7456 3.91781e-05 12.454 5.16781e-05H12.5C12.5905 5.16781e-05 12.6801 3.91442e-05 12.7688 2.66442e-05C15.7058 -0.000423356 17.6206 -0.000710897 19.1389 0.496189C19.7949 0.710927 20.1528 1.41689 19.938 2.073C19.7232 2.7291 19.0173 3.0869 18.3611 2.87215ZM24.8296 3.74508C25.1775 4.3414 24.9761 5.10679 24.3797 5.45464L24.1027 5.61626C19.6091 8.23753 15.9988 12.1387 13.7327 16.8214C13.5565 17.1856 13.215 17.4419 12.8161 17.5094C12.4173 17.5769 12.0104 17.4473 11.7241 17.1613L6.7073 12.1498C6.21889 11.6619 6.21846 10.8706 6.70636 10.3821C7.19425 9.89366 7.98571 9.89324 8.47412 10.3812L12.2872 14.1903C14.7816 9.7452 18.4221 6.03564 22.843 3.45681L23.1201 3.2952C23.7164 2.94735 24.4818 3.14876 24.8296 3.74508Z" fill="black"/>
</svg>
