<svg width="32" height="32" viewBox="0 0 32 32" fill="none" xmlns="http://www.w3.org/2000/svg">
<path d="M28.7466 14.6142L27.6 13.2942H28.0933C28.9466 13.2942 29.64 12.6008 29.64 11.7475V11.2408C29.64 10.3875 28.9466 9.69417 28.0933 9.69417H27.6533C27.28 9.69417 26.9866 9.9875 26.9866 10.3608C26.9866 10.7342 27.28 11.0275 27.6533 11.0275H28.0933C28.2133 11.0275 28.3066 11.1208 28.3066 11.2408V11.7475C28.3066 11.8675 28.2133 11.9608 28.0933 11.9608H27.16L26.16 8.69417C25.5066 6.5875 23.6 5.1875 21.4 5.1875H10.6C8.39997 5.1875 6.4933 6.60083 5.83997 8.69417L4.83997 11.9608H3.90663C3.78663 11.9608 3.6933 11.8675 3.6933 11.7475V11.2408C3.6933 11.1208 3.78663 11.0275 3.90663 11.0275H4.34663C4.71997 11.0275 5.0133 10.7342 5.0133 10.3608C5.0133 9.9875 4.71997 9.69417 4.34663 9.69417H3.90663C3.0533 9.69417 2.35997 10.3875 2.35997 11.2408V11.7475C2.35997 12.6008 3.0533 13.2942 3.90663 13.2942H4.39997L3.2533 14.6142C2.5333 15.4408 2.1333 16.5075 2.1333 17.6142V21.4408C2.1333 22.2542 2.58663 22.9608 3.26663 23.3342V24.8408C3.26663 25.9475 4.15997 26.8408 5.26663 26.8408H7.55997C8.66663 26.8408 9.55997 25.9475 9.55997 24.8408V23.6142H22.44V24.8408C22.44 25.9475 23.3333 26.8408 24.44 26.8408H26.7333C27.84 26.8408 28.7333 25.9475 28.7333 24.8408V23.3342C29.4 22.9608 29.8666 22.2675 29.8666 21.4408V17.6142C29.8666 16.5075 29.4666 15.4408 28.7466 14.6142ZM4.26663 15.4942L5.54663 14.0275C5.6133 13.9608 5.6533 13.8808 5.67997 13.7875L5.94663 12.9208C5.94663 12.9208 5.9733 12.8408 5.98663 12.8008L7.1333 9.09417C7.6133 7.56083 9.0133 6.52083 10.6133 6.52083H21.4C23.0133 6.52083 24.4133 7.5475 24.88 9.09417L26.0266 12.8008C26.0266 12.8008 26.04 12.8808 26.0666 12.9208L26.3333 13.7875C26.36 13.8808 26.4 13.9608 26.4666 14.0275L27.7466 15.4942C28.2533 16.0808 28.5466 16.8408 28.5466 17.6275V19.5608H25.5066C25.0666 19.5608 24.6933 19.2008 24.6933 18.7475V17.8942C24.6933 17.4542 25.0533 17.0808 25.5066 17.0808H27.1333C27.5066 17.0808 27.8 16.7875 27.8 16.4142C27.8 16.0408 27.5066 15.7475 27.1333 15.7475H25.5066C24.32 15.7475 23.36 16.7075 23.36 17.8942V18.7475C23.36 19.9342 24.32 20.8942 25.5066 20.8942H28.5466V21.4542C28.5466 21.9075 28.1733 22.2808 27.72 22.2808H20.8666V20.0008C20.8666 19.6275 20.5733 19.3342 20.2 19.3342H11.8266C11.4533 19.3342 11.16 19.6275 11.16 20.0008V22.2808H4.30663C3.8533 22.2808 3.47997 21.9075 3.47997 21.4542V20.8942H6.51997C7.70663 20.8942 8.66663 19.9342 8.66663 18.7475V17.8942C8.66663 16.7075 7.70663 15.7475 6.51997 15.7475H4.8933C4.51997 15.7475 4.22663 16.0408 4.22663 16.4142C4.22663 16.7875 4.51997 17.0808 4.8933 17.0808H6.51997C6.95997 17.0808 7.3333 17.4408 7.3333 17.8942V18.7475C7.3333 19.1875 6.9733 19.5608 6.51997 19.5608H3.47997V17.6275C3.47997 16.8408 3.75997 16.0942 4.27997 15.4942H4.26663ZM8.22663 24.8275C8.22663 25.2008 7.9333 25.4942 7.55997 25.4942H5.26663C4.8933 25.4942 4.59997 25.2008 4.59997 24.8275V23.6008H8.22663V24.8275ZM12.48 22.2675V20.6542H19.52V22.2675H12.48ZM27.4 24.8275C27.4 25.2008 27.1066 25.4942 26.7333 25.4942H24.44C24.0666 25.4942 23.7733 25.2008 23.7733 24.8275V23.6008H27.4V24.8275Z" fill="black"/>
<path d="M7.98649 13.2806H24.0132C24.3865 13.2806 24.6798 12.9873 24.6798 12.6139C24.6798 12.2406 24.3865 11.9473 24.0132 11.9473H7.98649C7.61316 11.9473 7.31982 12.2406 7.31982 12.6139C7.31982 12.9873 7.61316 13.2806 7.98649 13.2806Z" fill="black"/>
<path d="M21.4532 15.7324H10.5465C10.1732 15.7324 9.87988 16.0258 9.87988 16.3991C9.87988 16.7724 10.1732 17.0658 10.5465 17.0658H21.4532C21.8266 17.0658 22.1199 16.7724 22.1199 16.3991C22.1199 16.0258 21.8266 15.7324 21.4532 15.7324Z" fill="black"/>
</svg>
