<svg width="30" height="19" viewBox="0 0 30 19" fill="none" xmlns="http://www.w3.org/2000/svg">
<path d="M19.8738 6.5873L15.3228 10.2533L13.8188 8.3333C13.5118 7.9423 12.9468 7.8733 12.5548 8.1813C12.1638 8.4883 12.0948 9.0533 12.4018 9.4453L14.4688 12.0823C14.6168 12.2713 14.8358 12.3943 15.0748 12.4213C15.1088 12.4253 15.1428 12.4273 15.1768 12.4273C15.3818 12.4273 15.5808 12.3573 15.7408 12.2283L21.0018 7.9913C21.3888 7.6783 21.4498 7.1123 21.1388 6.7253C20.8288 6.3393 20.2608 6.2743 19.8738 6.5873Z" fill="black"/>
<path d="M29.7428 15.464L26.6218 1.769C26.3838 0.728001 25.4728 0 24.4038 0H5.37483C5.32583 0 5.27883 0.0120003 5.23083 0.0160003C4.23683 0.0900003 3.40583 0.786 3.18183 1.77L0.0578281 15.462C-0.0971719 16.141 0.0628282 16.842 0.496828 17.385C0.930828 17.929 1.57883 18.241 2.27383 18.241H4.36483C4.86183 18.241 5.26483 17.838 5.26483 17.341C5.26483 16.844 4.86183 16.441 4.36483 16.441H2.27383C2.07483 16.441 1.95683 16.33 1.90383 16.263C1.85083 16.197 1.76883 16.056 1.81283 15.863L4.30183 4.956L6.92783 16.475C7.16483 17.516 8.07683 18.244 9.14383 18.244H27.5258C28.2218 18.244 28.8698 17.931 29.3028 17.388C29.7368 16.844 29.8968 16.143 29.7428 15.464ZM27.8958 16.265C27.8428 16.331 27.7238 16.443 27.5258 16.443H9.14383C8.92183 16.443 8.73183 16.292 8.68283 16.075L5.37683 1.811C5.38483 1.811 5.38983 1.804 5.39783 1.804H14.4188C14.4218 1.804 14.4248 1.802 14.4288 1.802H24.4038C24.6268 1.802 24.8168 1.953 24.8658 2.17L27.9868 15.864C28.0318 16.058 27.9488 16.198 27.8958 16.265Z" fill="black"/>
</svg>
