<svg width="31" height="35" viewBox="0 0 31 35" fill="none" xmlns="http://www.w3.org/2000/svg">
<mask id="mask0_172_20006" style="mask-type:luminance" maskUnits="userSpaceOnUse" x="0" y="0" width="31" height="35">
<path d="M22.5526 12.3444L15.3768 8.20086L1.53528 0.208805C0.767636 -0.234724 0 0.0339684 0 0.961115V33.523C0 34.2181 0.547578 34.5175 1.21543 34.1328L15.3743 25.9557L22.55 21.813L29.4478 17.8314C30.2572 17.364 30.1796 16.7226 29.4964 16.355C28.8132 15.9874 22.5526 12.3444 22.5526 12.3444Z" fill="white"/>
</mask>
<g mask="url(#mask0_172_20006)">
<path d="M0.000488281 -0.544922V34.7097L17.7775 17.0828L0.000488281 -0.544922Z" fill="url(#paint0_linear_172_20006)"/>
<path d="M22.5522 12.3472L15.3765 8.20446L0.000488281 -0.673828V-0.545866L17.7775 17.0819L22.5522 12.3472Z" fill="url(#paint1_linear_172_20006)"/>
<path d="M0.000488281 34.707V34.8349L15.3765 25.9566L22.5522 21.8139L17.7758 17.0801L0.000488281 34.707Z" fill="url(#paint2_linear_172_20006)"/>
<path d="M22.5528 12.3477L17.7764 17.0823L22.5528 21.8161L30.7539 17.0815L22.5528 12.3477Z" fill="url(#paint3_linear_172_20006)"/>
</g>
<defs>
<linearGradient id="paint0_linear_172_20006" x1="8.88899" y1="-0.544922" x2="8.88899" y2="34.7097" gradientUnits="userSpaceOnUse">
<stop stop-color="#006AA2"/>
<stop offset="0.345" stop-color="#2F8DA6"/>
<stop offset="0.786" stop-color="#66B6AC"/>
<stop offset="1" stop-color="#7CC6AF"/>
</linearGradient>
<linearGradient id="paint1_linear_172_20006" x1="0.000488281" y1="8.20401" x2="22.5522" y2="8.20401" gradientUnits="userSpaceOnUse">
<stop stop-color="#4AB59D"/>
<stop offset="1" stop-color="#DFE385"/>
</linearGradient>
<linearGradient id="paint2_linear_172_20006" x1="11.2764" y1="17.0801" x2="11.2764" y2="34.8349" gradientUnits="userSpaceOnUse">
<stop stop-color="#E4282D"/>
<stop offset="0.316" stop-color="#BA2D4E"/>
<stop offset="0.777" stop-color="#83357B"/>
<stop offset="1" stop-color="#6E388D"/>
</linearGradient>
<linearGradient id="paint3_linear_172_20006" x1="24.2651" y1="12.3477" x2="24.2651" y2="21.8161" gradientUnits="userSpaceOnUse">
<stop stop-color="#F07165"/>
<stop offset="0.659" stop-color="#FAA460"/>
<stop offset="1" stop-color="#FFBA5E"/>
</linearGradient>
</defs>
</svg>
