<svg width="124" height="110" viewBox="0 0 124 110" fill="none" xmlns="http://www.w3.org/2000/svg">
<path d="M113.136 17.778L70.181 10.9747C64.1806 10.0243 58.546 14.1181 57.5956 20.1185L47.974 80.8672C47.0236 86.8676 51.1174 92.5022 57.1178 93.4526L100.072 100.256C106.073 101.206 111.707 97.1125 112.658 91.1121L122.279 30.3634C123.23 24.363 119.136 18.7284 113.136 17.778Z" fill="#F7F7F7"/>
<path d="M70.1028 11.4685L113.058 18.2719C118.785 19.1792 122.693 24.5577 121.786 30.2852L112.164 91.0338C111.257 96.7613 105.878 100.669 100.151 99.762L57.196 92.9586C51.4684 92.0514 47.5607 86.6729 48.4678 80.9453L58.0895 20.1967C58.9966 14.4691 64.3752 10.5614 70.1028 11.4685Z" stroke="black" stroke-opacity="0.07"/>
<path d="M52.6373 9.64686L10.626 20.9108C4.75742 22.4842 1.27554 28.5172 2.849 34.3858L18.7791 93.8006C20.3525 99.6691 26.3855 103.151 32.2541 101.578L74.2654 90.3136C80.134 88.7402 83.6158 82.7072 82.0424 76.8386L66.1123 17.4239C64.5389 11.5553 58.5059 8.0734 52.6373 9.64686Z" fill="#F5F5F5"/>
<path d="M10.7552 21.3938L52.7665 10.1299C58.3682 8.62797 64.1275 11.9513 65.6296 17.553L81.5597 76.9681C83.0616 82.57 79.7373 88.3286 74.1355 89.8305L32.1242 101.094C26.5224 102.596 20.764 99.2728 19.262 93.6711L3.33186 34.256L3.20521 33.7308C2.03997 28.2988 5.32855 22.8489 10.7552 21.3938Z" stroke="black" stroke-opacity="0.04"/>
<g filter="url(#filter0_d_172_20765)">
<path d="M94.1706 0H36.0586C29.9835 0 25.0586 4.92487 25.0586 11V90.85C25.0586 96.9251 29.9835 101.85 36.0586 101.85H94.1706C100.246 101.85 105.171 96.9251 105.171 90.85V11C105.171 4.92487 100.246 0 94.1706 0Z" fill="white"/>
<path d="M36.0586 0.5H94.1709C99.9698 0.500165 104.671 5.20111 104.671 11V90.8496C104.671 96.6485 99.9698 101.349 94.1709 101.35H36.0586C30.2596 101.35 25.5586 96.6486 25.5586 90.8496V11C25.5586 5.20101 30.2596 0.5 36.0586 0.5Z" stroke="black" stroke-opacity="0.08"/>
</g>
<path d="M83 27.325L81.15 23.625C65.1937 28.25 57.1 38.425 57.1 38.425L49.7 32.875L46 36.575L57.1 51.375C65.6562 35.4187 83 27.325 83 27.325Z" fill="#56D49B"/>
<path d="M95.1119 69.6465H35.5309C34.6417 69.6465 33.9209 70.3673 33.9209 71.2565V71.2575C33.9209 72.1467 34.6417 72.8675 35.5309 72.8675H95.1119C96.0011 72.8675 96.7219 72.1467 96.7219 71.2575V71.2565C96.7219 70.3673 96.0011 69.6465 95.1119 69.6465Z" fill="#D9D9D9"/>
<path d="M95.313 77.2949H43.784C43.0058 77.2949 42.375 77.9258 42.375 78.7039C42.375 79.4821 43.0058 80.1129 43.784 80.1129H95.313C96.0912 80.1129 96.722 79.4821 96.722 78.7039C96.722 77.9258 96.0912 77.2949 95.313 77.2949Z" fill="#E2E2E2"/>
<path d="M95.1135 84.541H58.8815C57.9923 84.541 57.2715 85.2618 57.2715 86.151V86.152C57.2715 87.0412 57.9923 87.762 58.8815 87.762H95.1135C96.0027 87.762 96.7235 87.0412 96.7235 86.152V86.151C96.7235 85.2618 96.0027 84.541 95.1135 84.541Z" fill="#EBEBEB"/>
<defs>
<filter id="filter0_d_172_20765" x="21.0586" y="0" width="88.1123" height="109.85" filterUnits="userSpaceOnUse" color-interpolation-filters="sRGB">
<feFlood flood-opacity="0" result="BackgroundImageFix"/>
<feColorMatrix in="SourceAlpha" type="matrix" values="0 0 0 0 0 0 0 0 0 0 0 0 0 0 0 0 0 0 127 0" result="hardAlpha"/>
<feOffset dy="4"/>
<feGaussianBlur stdDeviation="2"/>
<feComposite in2="hardAlpha" operator="out"/>
<feColorMatrix type="matrix" values="0 0 0 0 0 0 0 0 0 0 0 0 0 0 0 0 0 0 0.06 0"/>
<feBlend mode="normal" in2="BackgroundImageFix" result="effect1_dropShadow_172_20765"/>
<feBlend mode="normal" in="SourceGraphic" in2="effect1_dropShadow_172_20765" result="shape"/>
</filter>
</defs>
</svg>
