<svg width="286" height="215" viewBox="0 0 286 215" fill="none" xmlns="http://www.w3.org/2000/svg">
<path fill-rule="evenodd" clip-rule="evenodd" d="M82.2305 88.5371C82.2305 122.035 109.385 149.19 142.883 149.19C176.38 149.19 203.535 122.035 203.535 88.5371C203.535 55.0397 176.38 27.8848 142.883 27.8848C109.385 27.8848 82.2305 55.0397 82.2305 88.5371Z" fill="#FCFBD9"/>
<path fill-rule="evenodd" clip-rule="evenodd" d="M191.405 102.592L142.883 130.606L94.3608 102.592L142.883 74.5781L191.405 102.592Z" fill="white"/>
<path fill-rule="evenodd" clip-rule="evenodd" d="M191.405 102.592L142.883 130.606L94.3608 102.592L142.883 74.5781L191.405 102.592Z" stroke="#081F2D" stroke-linejoin="round"/>
<path d="M142.882 74.5762V130.604" stroke="#081F2D" stroke-linejoin="round"/>
<path fill-rule="evenodd" clip-rule="evenodd" d="M93.596 74.1002L109.497 64.9199C112.021 69.2929 117.664 70.8047 122.037 68.2801L149.578 115.982C145.205 118.507 143.67 124.11 146.217 128.522L130.317 137.703C127.769 133.29 122.189 131.795 117.777 134.342L90.2358 86.6405C94.6481 84.093 96.1206 78.4731 93.596 74.1002Z" fill="#F1E302"/>
<path fill-rule="evenodd" clip-rule="evenodd" d="M98.3944 79.0631L111.396 71.5566C113.46 75.1324 118.074 76.3686 121.65 74.3044L144.169 113.308C140.593 115.373 139.338 119.955 141.421 123.563L128.42 131.069C126.337 127.461 121.774 126.238 118.166 128.321L95.647 89.3169C99.2545 87.2341 100.459 82.6384 98.3944 79.0631Z" stroke="#081F2D"/>
<path fill-rule="evenodd" clip-rule="evenodd" d="M144.046 126.249C145.948 127.418 146.543 129.908 145.374 131.811C144.205 133.712 141.715 134.308 139.812 133.139C137.909 131.97 137.315 129.479 138.484 127.577C139.653 125.674 142.143 125.079 144.046 126.249ZM126.448 115.422L134.583 133.077C135.95 136.043 138.965 137.896 142.227 137.774L161.652 137.054C164.354 136.954 166.828 135.511 168.244 133.207L199.848 81.7733L158.506 56.3711L126.903 107.805C125.487 110.109 125.317 112.968 126.448 115.422Z" fill="#FF882E"/>
<path fill-rule="evenodd" clip-rule="evenodd" d="M148.545 109.927L151.782 111.916L153.961 108.369L154.51 108.81L152.377 112.282L155.985 114.499L155.566 115.181L147.531 110.243L150.426 105.531L151.021 105.897L148.545 109.927Z" fill="#081F2D"/>
<path fill-rule="evenodd" clip-rule="evenodd" d="M156.721 104.513L157.726 102.876C158.633 101.401 158.301 100.274 157.259 99.6341C156.205 98.9863 155.096 99.2616 154.205 100.712L153.199 102.349L156.721 104.513ZM163.587 101.985L163.649 102.023L163.168 102.804L158.263 103.309L157.303 104.871L160.639 106.921L160.22 107.603L152.185 102.665L153.625 100.322C154.722 98.536 156.259 98.0634 157.636 98.9089C158.814 99.6332 159.355 100.922 158.679 102.522L163.587 101.985Z" fill="#081F2D"/>
<path fill-rule="evenodd" clip-rule="evenodd" d="M167.642 94.1895L168.238 94.5553L165.304 99.3293L157.269 94.3919L160.164 89.6797L160.76 90.0454L158.283 94.0759L161.358 95.9653L163.538 92.4189L164.075 92.8514L161.941 96.3235L165.128 98.2815L167.642 94.1895Z" fill="#081F2D"/>
<path fill-rule="evenodd" clip-rule="evenodd" d="M172.528 86.2423L173.123 86.6076L170.19 91.3821L162.154 86.4443L165.05 81.7324L165.645 82.0981L163.169 86.1286L166.244 88.018L168.423 84.4716L168.96 84.9038L166.827 88.3762L170.014 90.3342L172.528 86.2423Z" fill="#081F2D"/>
<path fill-rule="evenodd" clip-rule="evenodd" d="M191.405 158.62L142.883 186.634V130.606L191.405 102.592V158.62Z" fill="#C3E1A1"/>
<path fill-rule="evenodd" clip-rule="evenodd" d="M203.535 123.602L155.013 151.616L142.883 130.606L191.405 102.592L203.535 123.602Z" fill="white"/>
<path fill-rule="evenodd" clip-rule="evenodd" d="M203.535 123.602L155.013 151.616L142.883 130.606L191.405 102.592L203.535 123.602Z" stroke="#081F2D" stroke-linejoin="round"/>
<path fill-rule="evenodd" clip-rule="evenodd" d="M142.883 186.634L94.3608 158.62V102.592L142.883 130.606V186.634Z" fill="#C3E1A1"/>
<path d="M97.7212 152.553L106.974 157.894" stroke="#081F2D" stroke-linejoin="round"/>
<path d="M97.7212 155.707L106.974 161.049" stroke="#081F2D" stroke-linejoin="round"/>
<path fill-rule="evenodd" clip-rule="evenodd" d="M142.883 130.606L130.753 151.616L82.2305 123.602L94.3608 102.592L142.883 130.606Z" fill="white"/>
<path fill-rule="evenodd" clip-rule="evenodd" d="M142.883 130.606L130.753 151.616L82.2305 123.602L94.3608 102.592L142.883 130.606Z" stroke="#081F2D" stroke-linejoin="round"/>
<path d="M142.882 130.605V186.634" stroke="#081F2D" stroke-linejoin="round"/>
<path fill-rule="evenodd" clip-rule="evenodd" d="M150.63 43.0349C150.63 46.9142 142.883 52 142.883 52C142.883 52 135.136 46.9142 135.136 43.0349C135.136 40.4677 137.217 38.3867 139.784 38.3867C140.975 38.3867 142.061 38.8343 142.883 39.5711C143.705 38.8343 144.791 38.3867 145.982 38.3867C148.549 38.3867 150.63 40.4677 150.63 43.0349Z" fill="#F16091"/>
<path fill-rule="evenodd" clip-rule="evenodd" d="M85.5659 135.316C79.603 141.279 69.9353 141.279 63.9722 135.316C58.0093 129.353 58.0093 119.685 63.9722 113.722C69.9353 107.759 79.603 107.759 85.5659 113.722C91.5288 119.685 91.5288 129.353 85.5659 135.316Z" fill="#FF882E"/>
<path fill-rule="evenodd" clip-rule="evenodd" d="M78.6408 121.364C78.6408 121.996 78.1281 122.509 77.4956 122.509C76.8631 122.509 76.3506 121.996 76.3506 121.364C76.3506 120.732 76.8631 120.219 77.4956 120.219C78.1281 120.219 78.6408 120.732 78.6408 121.364Z" fill="#081F2D"/>
<path d="M79.4039 127.387C77.309 129.482 74.2992 130.105 71.6602 129.255" stroke="#081F2D" stroke-width="2"/>
<path fill-rule="evenodd" clip-rule="evenodd" d="M71.6613 121.364C71.6613 121.996 71.1486 122.509 70.5161 122.509C69.8836 122.509 69.3711 121.996 69.3711 121.364C69.3711 120.732 69.8836 120.219 70.5161 120.219C71.1486 120.219 71.6613 120.732 71.6613 121.364Z" fill="#081F2D"/>
<path fill-rule="evenodd" clip-rule="evenodd" d="M89.7572 57.6713C86.613 69.4055 59.0565 78.5107 59.0565 78.5107C59.0565 78.5107 39.7444 56.8472 42.8886 45.113C44.9693 37.3478 52.9515 32.7392 60.7168 34.8199C64.3182 35.7848 67.2401 38.0184 69.1305 40.9142C72.2154 39.3515 75.8626 38.8782 79.4641 39.8431C87.2293 41.9238 91.8379 49.906 89.7572 57.6713Z" fill="#F16091"/>
<path fill-rule="evenodd" clip-rule="evenodd" d="M169.996 113.89C168.542 115.936 164.095 122.378 164.472 129.998C164.535 131.272 164.715 134.292 166.225 134.849C168.078 135.531 170.961 132.171 172.017 130.762C175.412 126.233 183.91 110.473 194.434 88.6621C188.49 93.488 177.98 102.658 169.996 113.89Z" fill="#081F2D"/>
<mask id="mask0_620_56071" style="mask-type:luminance" maskUnits="userSpaceOnUse" x="125" y="31" width="81" height="95">
<path fill-rule="evenodd" clip-rule="evenodd" d="M186.32 31.1096C178.637 31.3759 172.881 42.8749 170.808 49.3725C169.94 52.0984 168.672 57.2207 169.305 64.035C168.805 63.3443 158.32 49.3221 146.231 51.7813C144.982 52.0348 139.391 53.3411 137.826 57.4867C136.748 60.3327 137.826 63.8512 140.044 66.8621C139.417 66.7288 132.241 65.2966 129.762 68.9667C129.66 69.119 128.995 70.1268 128.982 71.4835C128.963 73.2331 130.028 75.0903 131.721 76.8145C130.999 76.9733 128.348 77.6325 126.852 80.0474C125.781 81.7716 125.737 83.6861 125.927 84.751C126.384 87.2739 128.995 89.5058 132.311 91.1092C131.48 91.3248 130.7 91.6419 129.99 92.0791C129.299 92.5041 127.816 93.4168 127.385 95.0585C127.22 95.6798 126.567 98.8176 133.445 104.472C140.97 110.653 148.063 112.085 155.562 114.678C160.837 116.497 168.462 119.629 177.293 125.226L205.418 97.7451C197.114 92.5924 192.437 87.1027 190.58 83.8194C185.191 74.3106 184.615 58.6661 189.362 46.1078C190.96 41.8736 193.92 36.0034 191.391 32.9293C190.045 31.2951 187.686 31.1035 186.639 31.1035C186.512 31.1035 186.404 31.106 186.32 31.1096Z" fill="white"/>
</mask>
<g mask="url(#mask0_620_56071)">
<path fill-rule="evenodd" clip-rule="evenodd" d="M186.32 31.1096C178.637 31.3759 172.881 42.8749 170.808 49.3725C169.94 52.0984 168.672 57.2207 169.305 64.035C168.805 63.3443 158.32 49.3221 146.231 51.7813C144.982 52.0348 139.391 53.3411 137.826 57.4867C136.748 60.3327 137.826 63.8512 140.044 66.8621C139.417 66.7288 132.241 65.2966 129.762 68.9667C129.66 69.119 128.995 70.1268 128.982 71.4835C128.963 73.2331 130.028 75.0903 131.721 76.8145C130.999 76.9733 128.348 77.6325 126.852 80.0474C125.781 81.7716 125.737 83.6861 125.927 84.751C126.384 87.2739 128.995 89.5058 132.311 91.1092C131.48 91.3248 130.7 91.6419 129.99 92.0791C129.299 92.5041 127.816 93.4168 127.385 95.0585C127.22 95.6798 126.567 98.8176 133.445 104.472C140.97 110.653 148.063 112.085 155.562 114.678C160.837 116.497 168.462 119.629 177.293 125.226L205.418 97.7451C197.114 92.5924 192.437 87.1027 190.58 83.8194C185.191 74.3106 184.615 58.6661 189.362 46.1078C190.96 41.8736 193.92 36.0034 191.391 32.9293C190.045 31.2951 187.686 31.1035 186.639 31.1035C186.512 31.1035 186.404 31.106 186.32 31.1096Z" fill="url(#paint0_linear_620_56071)"/>
</g>
<path d="M170.301 70.0326C167.941 60.226 169.695 52.8533 170.806 49.373" stroke="#081F2D"/>
<path d="M171.566 99.627C170.183 98.182 168.228 95.7617 166.872 92.2983C164.725 86.8153 165.337 81.9297 165.752 79.7461" stroke="#081F2D"/>
<mask id="mask1_620_56071" style="mask-type:luminance" maskUnits="userSpaceOnUse" x="127" y="90" width="21" height="14">
<path fill-rule="evenodd" clip-rule="evenodd" d="M129.992 92.0788C129.412 92.4352 127.832 93.3426 127.385 95.0582C126.796 97.3219 128.564 99.4433 129.033 100.006C131.847 103.383 136.569 103.378 138.31 103.377C140.069 103.375 145.004 103.37 146.602 100.327C147.353 98.8967 147.039 97.4206 147 97.25C146.186 93.6675 140.521 90.7285 135.331 90.7285C133.393 90.7285 131.52 91.1386 129.992 92.0788Z" fill="white"/>
</mask>
<g mask="url(#mask1_620_56071)">
<path fill-rule="evenodd" clip-rule="evenodd" d="M129.992 92.0788C129.412 92.4352 127.832 93.3426 127.385 95.0582C126.796 97.3219 128.564 99.4433 129.033 100.006C131.847 103.383 136.569 103.378 138.31 103.377C140.069 103.375 145.004 103.37 146.602 100.327C147.353 98.8967 147.039 97.4206 147 97.25C146.186 93.6675 140.521 90.7285 135.331 90.7285C133.393 90.7285 131.52 91.1386 129.992 92.0788Z" fill="url(#paint1_linear_620_56071)"/>
</g>
<mask id="mask2_620_56071" style="mask-type:luminance" maskUnits="userSpaceOnUse" x="125" y="76" width="25" height="18">
<path fill-rule="evenodd" clip-rule="evenodd" d="M131.732 76.8166C130.908 77.0332 128.308 77.7175 126.856 80.048C125.822 81.7072 125.728 83.6234 125.933 84.7524C127.195 91.705 144.799 96.4544 148.544 91.8369C149.581 90.5578 150.253 87.6992 149.227 85.5099C148.8 84.5994 148.192 84.0467 147.838 83.7374C144.421 80.7587 139.532 76.498 134.203 76.498C133.388 76.498 132.563 76.5974 131.732 76.8166Z" fill="white"/>
</mask>
<g mask="url(#mask2_620_56071)">
<path fill-rule="evenodd" clip-rule="evenodd" d="M131.732 76.8166C130.908 77.0332 128.308 77.7175 126.856 80.048C125.822 81.7072 125.728 83.6234 125.933 84.7524C127.195 91.705 144.799 96.4544 148.544 91.8369C149.581 90.5578 150.253 87.6992 149.227 85.5099C148.8 84.5994 148.192 84.0467 147.838 83.7374C144.421 80.7587 139.532 76.498 134.203 76.498C133.388 76.498 132.563 76.5974 131.732 76.8166Z" fill="url(#paint2_linear_620_56071)"/>
</g>
<mask id="mask3_620_56071" style="mask-type:luminance" maskUnits="userSpaceOnUse" x="128" y="66" width="26" height="18">
<path fill-rule="evenodd" clip-rule="evenodd" d="M129.768 68.9621C129.028 70.0507 128.987 71.2054 128.984 71.4818C128.904 78.3454 145.546 86.8411 151.425 82.6294C151.715 82.4217 153.29 81.2433 153.647 79.3196C154.076 77.008 152.492 74.9885 151.283 73.4938C146.9 68.0691 140.574 66.9469 140.055 66.8629C139.446 66.7642 137.948 66.5215 136.244 66.5215C133.877 66.5215 131.11 66.9898 129.768 68.9621Z" fill="white"/>
</mask>
<g mask="url(#mask3_620_56071)">
<path fill-rule="evenodd" clip-rule="evenodd" d="M129.768 68.9621C129.028 70.0507 128.987 71.2054 128.984 71.4818C128.904 78.3454 145.546 86.8411 151.425 82.6294C151.715 82.4217 153.29 81.2433 153.647 79.3196C154.076 77.008 152.492 74.9885 151.283 73.4938C146.9 68.0691 140.574 66.9469 140.055 66.8629C139.446 66.7642 137.948 66.5215 136.244 66.5215C133.877 66.5215 131.11 66.9898 129.768 68.9621Z" fill="url(#paint3_linear_620_56071)"/>
</g>
<mask id="mask4_620_56071" style="mask-type:luminance" maskUnits="userSpaceOnUse" x="137" y="54" width="22" height="20">
<path fill-rule="evenodd" clip-rule="evenodd" d="M138.729 55.8639C138.36 56.349 138.05 56.8874 137.825 57.4855C135.593 63.39 142.632 72.1745 149.897 73.3414C150.625 73.4579 155.132 74.1815 157.225 71.5092C159.532 68.563 157.07 63.834 156.802 63.3353C154.39 58.8469 149.338 57.852 148.488 57.6979L140.712 54.0156C139.975 54.5218 139.285 55.1317 138.729 55.8639Z" fill="white"/>
</mask>
<g mask="url(#mask4_620_56071)">
<path fill-rule="evenodd" clip-rule="evenodd" d="M138.729 55.8639C138.36 56.349 138.05 56.8874 137.825 57.4855C135.593 63.39 142.632 72.1745 149.897 73.3414C150.625 73.4579 155.132 74.1815 157.225 71.5092C159.532 68.563 157.07 63.834 156.802 63.3353C154.39 58.8469 149.338 57.852 148.488 57.6979L140.712 54.0156C139.975 54.5218 139.285 55.1317 138.729 55.8639Z" fill="url(#paint4_linear_620_56071)"/>
</g>
<path d="M138.306 103.379C142.17 103.798 145.409 102.63 146.598 100.329C146.695 100.14 147.353 98.8208 146.996 97.2525C146.69 95.9058 145.698 94.6502 144.304 93.6074" stroke="#081F2D"/>
<path d="M147.832 83.7383C148.276 84.1133 148.829 84.6882 149.221 85.5104C150.294 87.7637 149.544 90.5973 148.538 91.8374C145.662 95.3849 134.605 93.4044 129.062 89.1433" stroke="#081F2D"/>
<path d="M151.278 73.4961C151.668 73.8693 154.212 76.3754 153.641 79.3223C153.276 81.212 151.809 82.3524 151.419 82.632C146.558 86.1151 134.334 80.9067 130.296 75.1184" stroke="#081F2D"/>
<path d="M148.484 57.6992C149.335 57.8529 154.387 58.8475 156.799 63.3363C157.067 63.8353 159.529 68.564 157.222 71.5102C155.129 74.1828 150.622 73.4589 149.894 73.342C145.162 72.5823 140.525 68.5905 138.485 64.2679" stroke="#081F2D"/>
<mask id="mask5_620_56071" style="mask-type:luminance" maskUnits="userSpaceOnUse" x="165" y="89" width="59" height="70">
<path fill-rule="evenodd" clip-rule="evenodd" d="M165.989 89.0645H223.296V158.811H165.989V89.0645Z" fill="white"/>
</mask>
<g mask="url(#mask5_620_56071)">
<path fill-rule="evenodd" clip-rule="evenodd" d="M223.296 111.089L190.488 158.811C182.559 150.559 176.69 145.175 172.887 141.542C170.584 139.34 168.285 137.164 165.989 135.014C166.008 135.027 166.064 135.066 166.127 135.102C166.175 135.137 166.227 135.164 166.279 135.191C166.322 135.214 166.372 135.236 166.411 135.247C168.259 135.931 171.142 132.573 172.2 131.162C175.596 126.635 184.094 110.877 194.62 89.0645L223.296 111.089Z" fill="#FF882E"/>
</g>
<path d="M172.248 140.932V140.932C176.479 139.285 180.026 136.25 182.308 132.324L203.486 95.875" stroke="#081F2D"/>
<path d="M164.655 130.399C164.718 131.673 164.898 134.693 166.408 135.249C168.261 135.932 171.143 132.572 172.2 131.163C175.595 126.634 184.093 110.874 194.617 89.0625" stroke="#081F2D" stroke-linecap="round" stroke-linejoin="round"/>
<defs>
<linearGradient id="paint0_linear_620_56071" x1="240.367" y1="89.0076" x2="175.739" y2="42.8105" gradientUnits="userSpaceOnUse">
<stop stop-color="#FF5607"/>
<stop offset="1" stop-color="#FFA700"/>
</linearGradient>
<linearGradient id="paint1_linear_620_56071" x1="181.666" y1="101.145" x2="158.656" y2="73.2745" gradientUnits="userSpaceOnUse">
<stop stop-color="#FF5607"/>
<stop offset="1" stop-color="#FFA700"/>
</linearGradient>
<linearGradient id="paint2_linear_620_56071" x1="181.985" y1="88.8188" x2="155.283" y2="63.3525" gradientUnits="userSpaceOnUse">
<stop stop-color="#FF5607"/>
<stop offset="1" stop-color="#FFA700"/>
</linearGradient>
<linearGradient id="paint3_linear_620_56071" x1="185.453" y1="78.3331" x2="159.716" y2="52.2075" gradientUnits="userSpaceOnUse">
<stop stop-color="#FF5607"/>
<stop offset="1" stop-color="#FFA700"/>
</linearGradient>
<linearGradient id="paint4_linear_620_56071" x1="190.078" y1="62.1832" x2="151.946" y2="40.8155" gradientUnits="userSpaceOnUse">
<stop stop-color="#FF5607"/>
<stop offset="1" stop-color="#FFA700"/>
</linearGradient>
</defs>
</svg>
