<svg width="189" height="173" viewBox="0 0 189 173" fill="none" xmlns="http://www.w3.org/2000/svg">
<path fill-rule="evenodd" clip-rule="evenodd" d="M36.772 97.3775C36.772 135.276 67.4949 165.999 105.394 165.999C143.292 165.999 174.015 135.276 174.015 97.3775C174.015 59.4788 143.292 28.7559 105.394 28.7559C67.4949 28.7559 36.772 59.4788 36.772 97.3775Z" fill="#FCFBD9"/>
<path fill-rule="evenodd" clip-rule="evenodd" d="M98.6963 137C98.6963 156.882 82.5787 173 62.6963 173C42.8144 173 26.6963 156.882 26.6963 137C26.6963 117.118 42.8144 101 62.6963 101C82.5787 101 98.6963 117.118 98.6963 137Z" fill="#FF882E"/>
<path d="M77.4788 126.922L59.4791 144.922L52.2354 137.678" stroke="#081F2D" stroke-width="3.393"/>
<path d="M1.69629 93.7642C1.69629 85.2723 4.93571 76.78 11.415 70.3007C17.8942 63.8215 26.3865 60.582 34.8784 60.582" stroke="#081F2D" stroke-width="3.393"/>
<path d="M18.2876 93.7629C18.2876 89.5168 19.9075 85.271 23.1469 82.0312C26.3868 78.7918 30.6325 77.1719 34.8787 77.1719" stroke="#081F2D" stroke-width="3.393"/>
<path fill-rule="evenodd" clip-rule="evenodd" d="M138.142 108.852C135.432 109.7 127.017 112.461 122.142 119.585C121.327 120.776 119.422 123.619 120.401 125.154C121.604 127.037 126.5 125.982 128.416 125.436C134.575 123.679 153.016 115.295 177.424 102.846C168.766 103.126 153.021 104.195 138.142 108.852Z" fill="#081F2D"/>
<path fill-rule="evenodd" clip-rule="evenodd" d="M138.142 108.852C135.432 109.7 127.017 112.461 122.142 119.585C121.327 120.776 119.422 123.619 120.401 125.154C121.604 127.037 126.5 125.982 128.416 125.436C134.575 123.679 153.016 115.295 177.424 102.846C168.766 103.126 153.021 104.195 138.142 108.852Z" stroke="#081F2D" stroke-width="2.036" stroke-linecap="round" stroke-linejoin="round"/>
<mask id="mask0_620_56182" style="mask-type:luminance" maskUnits="userSpaceOnUse" x="83" y="17" width="99" height="111">
<path fill-rule="evenodd" clip-rule="evenodd" d="M95.5919 18.6857C94.3369 19.7115 94.0784 21.318 94.0068 21.8127C93.4401 25.7507 96.9469 29.5948 102.627 34.2709C101.86 33.7257 94.0497 28.3393 90.4778 31.0436C89.0868 32.1049 88.8716 33.9983 88.8069 34.6361C88.0611 41.3063 104.951 53.1331 116.061 60.1834C103.273 52.5595 88.0396 44.8567 84.2097 49.0305C83.4638 49.8411 83.3493 50.8882 83.3061 51.3473C82.7608 56.5108 91.0161 60.6207 108.917 71.9022C104.786 69.3565 100.024 66.5733 96.2084 64.7734C94.3292 63.884 91.1452 62.514 89.4953 63.8411C89.4953 63.8411 88.7353 64.4502 88.5201 65.7704C87.6238 71.1993 110.445 87.487 123.641 104.585C127.306 109.326 132.363 116.899 136.537 127.815L181.771 123.526C180.989 121.26 179.906 117.832 178.973 113.572C175.438 97.4419 178.837 91.3242 177.116 77.5325C176.7 74.2186 174.878 61.5243 166.688 48.6507C161.861 41.0624 152.695 30.068 148.198 31.9541C145.523 33.0801 145.021 38.5239 145.501 42.0093C145.817 44.2755 146.585 45.997 147.582 47.5461C141.536 42.9201 120.629 27.0915 107.648 20.6725C103.933 18.839 100.861 17.7672 98.5551 17.7676C97.3526 17.7676 96.3588 18.0592 95.5919 18.6857Z" fill="white"/>
</mask>
<g mask="url(#mask0_620_56182)">
<path fill-rule="evenodd" clip-rule="evenodd" d="M95.5919 18.6857C94.3369 19.7115 94.0784 21.318 94.0068 21.8127C93.4401 25.7507 96.9469 29.5948 102.627 34.2709C101.86 33.7257 94.0497 28.3393 90.4778 31.0436C89.0868 32.1049 88.8716 33.9983 88.8069 34.6361C88.0611 41.3063 104.951 53.1331 116.061 60.1834C103.273 52.5595 88.0396 44.8567 84.2097 49.0305C83.4638 49.8411 83.3493 50.8882 83.3061 51.3473C82.7608 56.5108 91.0161 60.6207 108.917 71.9022C104.786 69.3565 100.024 66.5733 96.2084 64.7734C94.3292 63.884 91.1452 62.514 89.4953 63.8411C89.4953 63.8411 88.7353 64.4502 88.5201 65.7704C87.6238 71.1993 110.445 87.487 123.641 104.585C127.306 109.326 132.363 116.899 136.537 127.815L181.771 123.526C180.989 121.26 179.906 117.832 178.973 113.572C175.438 97.4419 178.837 91.3242 177.116 77.5325C176.7 74.2186 174.878 61.5243 166.688 48.6507C161.861 41.0624 152.695 30.068 148.198 31.9541C145.523 33.0801 145.021 38.5239 145.501 42.0093C145.817 44.2755 146.585 45.997 147.582 47.5461C141.536 42.9201 120.629 27.0915 107.648 20.6725C103.933 18.839 100.861 17.7672 98.5551 17.7676C97.3526 17.7676 96.3588 18.0592 95.5919 18.6857Z" fill="url(#paint0_linear_620_56182)"/>
</g>
<path d="M98.6091 65.4844C101.597 67.3425 105.031 69.4551 108.92 71.9054C112.822 74.3642 115.913 76.3639 117.595 77.4568" stroke="#081F2D" stroke-width="2.036"/>
<path d="M105.52 53.0977C112.561 58.1625 119.921 62.6226 123.409 64.6975" stroke="#081F2D" stroke-width="2.036"/>
<path d="M98.1816 30.293C100.094 32.2268 102.571 34.2742 105.433 36.5206C110.69 40.6455 117.86 45.9202 126.888 51.582" stroke="#081F2D" stroke-width="2.036"/>
<mask id="mask1_620_56182" style="mask-type:luminance" maskUnits="userSpaceOnUse" x="98" y="0" width="55" height="94">
<path fill-rule="evenodd" clip-rule="evenodd" d="M98.2227 0H152.013V93.2362H98.2227V0Z" fill="white"/>
</mask>
<g mask="url(#mask1_620_56182)">
<path fill-rule="evenodd" clip-rule="evenodd" d="M144.841 93.2363H105.394C101.433 93.2363 98.2227 90.0252 98.2227 86.0642V7.17211C98.2227 3.21111 101.433 0 105.394 0H144.841C148.802 0 152.013 3.21111 152.013 7.17211V86.0642C152.013 90.0252 148.802 93.2363 144.841 93.2363Z" fill="#F1E302"/>
</g>
<path d="M118.256 4.66708H131.98" stroke="#081F2D" stroke-width="2.036"/>
<path d="M114.962 87.7472H135.273" stroke="white" stroke-width="2.036"/>
<mask id="mask2_620_56182" style="mask-type:luminance" maskUnits="userSpaceOnUse" x="145" y="31" width="37" height="93">
<path fill-rule="evenodd" clip-rule="evenodd" d="M148.198 31.9542C145.523 33.0803 145.021 38.5241 145.501 42.0094C146.341 48.0409 150.392 50.1781 153.405 55.6579C155.119 58.7703 156.676 63.2891 156.482 69.8226C156.482 69.8226 154.079 70.7189 151.992 72.4258C142.862 79.885 145.208 94.8603 145.523 96.7103L181.77 123.526C180.989 121.26 179.913 117.832 178.973 113.572C175.445 97.442 178.837 91.3239 177.116 77.5326C176.7 74.2188 174.878 61.5244 166.687 48.6508C162.233 41.6466 154.08 31.7402 149.315 31.7402C148.918 31.7402 148.544 31.809 148.198 31.9542Z" fill="white"/>
</mask>
<g mask="url(#mask2_620_56182)">
<path fill-rule="evenodd" clip-rule="evenodd" d="M148.198 31.9542C145.523 33.0803 145.021 38.5241 145.501 42.0094C146.341 48.0409 150.392 50.1781 153.405 55.6579C155.119 58.7703 156.676 63.2891 156.482 69.8226C156.482 69.8226 154.079 70.7189 151.992 72.4258C142.862 79.885 145.208 94.8603 145.523 96.7103L181.77 123.526C180.989 121.26 179.913 117.832 178.973 113.572C175.445 97.442 178.837 91.3239 177.116 77.5326C176.7 74.2188 174.878 61.5244 166.687 48.6508C162.233 41.6466 154.08 31.7402 149.315 31.7402C148.918 31.7402 148.544 31.809 148.198 31.9542Z" fill="url(#paint1_linear_620_56182)"/>
</g>
<path d="M156.482 69.821C156.483 61.649 154.956 58.4719 153.406 55.6563C150.393 50.177 146.341 48.0397 145.502 42.0078" stroke="#081F2D" stroke-width="2.036"/>
<path d="M145.524 96.7091C145.208 94.8586 142.863 79.8834 151.993 72.4245C154.073 70.7253 156.482 69.8213 156.482 69.8213C157.468 69.4245 158.318 69.1839 158.906 69.0391" stroke="#081F2D" stroke-width="2.036"/>
<mask id="mask3_620_56182" style="mask-type:luminance" maskUnits="userSpaceOnUse" x="120" y="102" width="69" height="61">
<path fill-rule="evenodd" clip-rule="evenodd" d="M120.184 102.848H188.188V162.859H120.184V102.848Z" fill="white"/>
</mask>
<g mask="url(#mask3_620_56182)">
<path fill-rule="evenodd" clip-rule="evenodd" d="M188.188 142.315L125.972 162.859C124.475 149.999 122.871 141.132 121.931 135.256C121.363 131.696 120.781 128.162 120.184 124.654C120.192 124.679 120.216 124.752 120.248 124.828C120.267 124.893 120.296 124.953 120.324 125.012C120.347 125.063 120.377 125.116 120.404 125.153C121.602 127.033 126.497 125.982 128.416 125.435C134.574 123.679 153.013 115.297 177.423 102.848L188.188 142.315Z" fill="#FF882E"/>
</g>
<path d="M121.774 134.269V134.269C126.714 135.681 131.987 135.374 136.729 133.397L180.752 115.051" stroke="#081F2D" stroke-width="2.036"/>
<path d="M122.142 119.585C121.327 120.776 119.422 123.62 120.401 125.154C121.604 127.037 126.5 125.982 128.416 125.436C134.575 123.679 153.016 115.295 177.424 102.846" stroke="#081F2D" stroke-width="2.036" stroke-linecap="round" stroke-linejoin="round"/>
<defs>
<linearGradient id="paint0_linear_620_56182" x1="221.452" y1="86.7346" x2="145.046" y2="25.5352" gradientUnits="userSpaceOnUse">
<stop stop-color="#FF5607"/>
<stop offset="1" stop-color="#FFA700"/>
</linearGradient>
<linearGradient id="paint1_linear_620_56182" x1="176.571" y1="129.834" x2="176.571" y2="64.0225" gradientUnits="userSpaceOnUse">
<stop stop-color="#FF5607"/>
<stop offset="1" stop-color="#FFA700"/>
</linearGradient>
</defs>
</svg>
