<svg width="48" height="48" viewBox="0 0 48 48" fill="none" xmlns="http://www.w3.org/2000/svg">
<path d="M23.9998 4.80078C13.3966 4.80078 4.7998 13.3976 4.7998 24.0008C4.7998 34.604 13.3966 43.2008 23.9998 43.2008C34.603 43.2008 43.1998 34.604 43.1998 24.0008C43.1998 13.3976 34.603 4.80078 23.9998 4.80078ZM31.5694 25.8776C30.427 27.2552 28.7806 28.6568 26.8798 30.2792C26.2318 30.8312 25.4926 31.46 24.7294 32.1272C24.5278 32.3048 24.2686 32.4008 23.9998 32.4008C23.731 32.4008 23.4718 32.3048 23.2702 32.1272C22.507 31.46 21.7678 30.8312 21.1198 30.2792C19.219 28.6568 17.5726 27.2552 16.4302 25.8776C15.1534 24.3368 14.5582 22.8728 14.5582 21.2792C14.5582 19.724 15.091 18.2936 16.0558 17.2472C17.035 16.1864 18.3742 15.6008 19.8334 15.6008C20.923 15.6008 21.9214 15.9464 22.7998 16.628C23.2462 16.9688 23.6446 17.3912 23.9998 17.8808C24.355 17.3912 24.7582 16.9688 25.1998 16.628C26.0782 15.9464 27.0766 15.6008 28.1662 15.6008C29.6254 15.6008 30.9646 16.1864 31.9438 17.2472C32.9086 18.2936 33.4414 19.724 33.4414 21.2792C33.4414 22.8728 32.8462 24.3368 31.5694 25.8776Z" fill="#F43756"/>
</svg>
