<svg width="95" height="95" viewBox="0 0 95 95" fill="none" xmlns="http://www.w3.org/2000/svg">
<path d="M80.8984 15.1445C65.493 15.1445 49.5278 0.864602 49.3698 0.721545C48.3086 -0.240515 46.6912 -0.240515 45.6302 0.721545C45.4712 0.865715 29.548 15.1445 14.1016 15.1445C12.5645 15.1445 11.3184 16.3906 11.3184 17.9277V51.2589C11.3184 78.2605 31.4012 89.05 46.5073 94.817C46.827 94.9391 47.1634 95 47.5 95C47.8366 95 48.173 94.9389 48.4927 94.817C69.6736 86.7309 83.6816 74.1176 83.6816 51.2589V17.9277C83.6816 16.3906 82.4355 15.1445 80.8984 15.1445Z" fill="#B54708"/>
<path d="M47.5 28.0176C36.7574 28.0176 28.0176 36.7574 28.0176 47.5C28.0176 58.2426 36.7574 66.9824 47.5 66.9824C58.2426 66.9824 66.9824 58.2426 66.9824 47.5C66.9824 36.7574 58.2426 28.0176 47.5 28.0176ZM55.0343 46.6847L46.6847 55.0343C46.1414 55.5778 45.4291 55.8496 44.7168 55.8496C44.0045 55.8496 43.2922 55.578 42.7489 55.0343L39.9657 52.2511C38.8787 51.1642 38.8787 49.402 39.9657 48.3151C41.0524 47.2282 42.8148 47.2282 43.9017 48.3151L44.717 49.1302L51.0987 42.7487C52.1854 41.6618 53.9478 41.6618 55.0347 42.7487C56.1214 43.8356 56.1214 45.5978 55.0343 46.6847Z" fill="url(#paint0_linear_172_20301)"/>
<defs>
<linearGradient id="paint0_linear_172_20301" x1="47.5" y1="66.9824" x2="47.5" y2="28.0176" gradientUnits="userSpaceOnUse">
<stop stop-color="#FAB275"/>
<stop offset="0.9973" stop-color="white"/>
</linearGradient>
</defs>
</svg>
