<svg width="37" height="37" viewBox="0 0 37 37" fill="none" xmlns="http://www.w3.org/2000/svg">
<g clip-path="url(#clip0_172_20311)">
<path fill-rule="evenodd" clip-rule="evenodd" d="M18.5 37C28.6892 37 37 28.6892 37 18.5C37 8.31076 28.6892 0 18.5 0C8.31076 0 0 8.31076 0 18.5C0 28.6892 8.31076 37 18.5 37Z" fill="#2196F3"/>
<path d="M9.12845 14.92H13.2262V26.7028C13.1103 27.2796 12.577 27.7115 11.9743 27.7115H9.12845C8.43838 27.7115 7.87695 27.1496 7.87695 26.4596V16.1715C7.87695 15.4815 8.43838 14.92 9.12845 14.92ZM28.6142 16.2914C27.9742 15.4709 26.8237 14.9201 25.7513 14.9201H19.715C19.6189 14.9201 19.5284 14.8748 19.4705 14.7984C19.4121 14.7221 19.3933 14.6224 19.4191 14.5298L20.1821 11.7936C20.9164 9.16071 19.9472 8.42584 17.7186 7.47771C17.5101 7.38905 17.3073 7.38774 17.0979 7.47331C16.8885 7.55844 16.745 7.70116 16.658 7.91008L13.8407 14.6737V26.5285L16.6796 27.7115H24.1973C26.4207 27.7115 27.253 25.3503 27.5076 24.3354L29.062 18.1459C29.263 17.3449 28.9294 16.6952 28.6142 16.2914Z" fill="white"/>
</g>
<defs>
<clipPath id="clip0_172_20311">
<rect width="37" height="37" fill="white"/>
</clipPath>
</defs>
</svg>
